<svg width="39" height="44" viewBox="0 0 39 44" fill="none" xmlns="http://www.w3.org/2000/svg">
<path d="M15.8033 1.31294C16.5681 0.655417 17.4485 0.279353 18.413 0.105336C20.1961 -0.218173 21.8028 0.205775 23.204 1.34565C24.3705 2.29398 25.0571 3.53779 25.2871 5.01986C25.4226 5.88644 25.4039 6.76353 25.3946 7.63946C25.3922 7.82749 25.279 7.85669 25.133 7.85552C24.1673 7.85435 23.2017 7.85669 22.2372 7.84851C22.0503 7.84618 21.8658 7.82866 21.6802 7.84968C21.5039 7.8707 21.4221 7.80647 21.4256 7.61377C21.435 7.13609 21.4408 6.65725 21.4245 6.17842C21.4116 5.80819 21.3626 5.43914 21.2119 5.0946C20.7589 4.05517 19.4733 3.65926 18.5053 4.25138C17.8689 4.63912 17.6097 5.23125 17.5863 5.9425C17.57 6.49141 17.577 7.04033 17.5863 7.59041C17.5898 7.78428 17.5233 7.86136 17.3283 7.85902C16.4256 7.84851 15.5219 7.84501 14.6181 7.84034C14.3624 7.83917 14.1055 7.84501 13.8486 7.84618C13.6874 7.84735 13.6115 7.77844 13.6139 7.60559C13.6256 6.74718 13.5485 5.88294 13.6828 5.03387C13.8404 4.04933 14.1627 3.12319 14.8131 2.32668C15.112 1.95996 15.4249 1.62127 15.8033 1.31294ZM22.2932 1.24754C21.5833 0.820091 20.8103 0.56432 19.9917 0.494246C18.5683 0.372785 17.2769 0.752352 16.1396 1.62945C15.2626 2.30683 14.6998 3.20261 14.3448 4.2362C14.0167 5.19388 14.0728 6.19009 14.0739 7.18047C14.0739 7.32179 14.1452 7.3615 14.2736 7.36033C15.1412 7.34982 16.0088 7.33931 16.8764 7.3358C17.0562 7.33464 17.1297 7.26923 17.1262 7.08471C17.1169 6.67711 17.1204 6.26951 17.1239 5.86192C17.1309 5.22307 17.3423 4.64613 17.7965 4.207C18.5368 3.49225 19.4184 3.28786 20.3887 3.68962C21.2458 4.04466 21.7059 4.71153 21.8343 5.62834C21.9044 6.12352 21.874 6.61755 21.8869 7.11157C21.8892 7.22953 21.8775 7.34281 22.0573 7.34164C22.9343 7.3358 23.81 7.33464 24.6869 7.33464C24.8469 7.33464 24.9018 7.25288 24.9076 7.10339C24.9368 6.44003 24.9415 5.77199 24.8387 5.1203C24.576 3.47122 23.747 2.17135 22.2932 1.24754Z" fill="#DAA520"/>
<path d="M2.97524 14.3841C4.03198 13.7884 5.15529 13.5724 6.33698 13.6016C6.7445 13.6121 7.15201 13.6109 7.55953 13.6004C7.77088 13.5946 7.85846 13.66 7.85612 13.8877C7.84795 15.0299 7.84795 16.1733 7.85612 17.3167C7.85729 17.5316 7.77322 17.5958 7.57588 17.5935C7.01773 17.5876 6.45958 17.5876 5.90143 17.5911C5.14712 17.597 4.57262 17.9158 4.21414 18.5897C3.85683 19.2601 3.91522 19.9082 4.31807 20.5471C4.7466 21.228 5.42852 21.3599 6.14314 21.4032C6.6289 21.4323 7.11815 21.4148 7.60507 21.4067C7.78606 21.4032 7.85612 21.4627 7.85496 21.6496C7.84912 22.8105 7.85145 23.9714 7.85262 25.1334C7.85262 25.2689 7.84094 25.3763 7.65995 25.3787C6.69545 25.388 5.72511 25.4196 4.77346 25.2514C3.80312 25.0785 2.93087 24.6604 2.15903 24.0286C0.957494 23.044 0.262727 21.7792 0.0572161 20.2551C-0.192667 18.4028 0.384165 16.8028 1.62657 15.427C2.0084 15.0042 2.46847 14.6796 2.97524 14.3841ZM7.39256 15.0708C7.39256 14.8314 7.38321 14.592 7.39489 14.3525C7.4054 14.1587 7.333 14.0816 7.13567 14.0851C6.71997 14.0944 6.30311 14.0839 5.88625 14.0874C4.19196 14.0991 2.79892 14.759 1.70597 16.0518C0.889769 17.0177 0.509107 18.1622 0.472909 19.4014C0.442549 20.4338 0.732132 21.4137 1.26926 22.3059C1.95702 23.4493 2.9694 24.1898 4.21998 24.6044C5.15762 24.9162 6.1338 24.9185 7.10881 24.9162C7.32833 24.9162 7.39839 24.8228 7.39606 24.609C7.38672 23.8114 7.39256 23.0137 7.39256 22.216C7.39139 21.8715 7.39022 21.8691 7.03525 21.8703C6.47827 21.8726 5.91311 21.917 5.36897 21.7967C3.96893 21.4872 3.07216 20.0017 3.66884 18.62C4.0168 17.8142 4.61232 17.2886 5.51026 17.152C6.03105 17.0737 6.55416 17.1146 7.07495 17.1135C7.31082 17.1123 7.4054 17.0527 7.39839 16.7993C7.37971 16.241 7.39256 15.6828 7.39256 15.0708Z" fill="#DAA520"/>
<path d="M31.4033 13.6039C32.1985 13.618 32.9692 13.5654 33.7375 13.646C34.6133 13.7382 35.4307 14.0139 36.1745 14.4845C37.6551 15.4224 38.5892 16.7433 38.9033 18.4776C39.1579 19.8814 38.9068 21.2 38.177 22.4251C37.1997 24.066 35.7471 25.0143 33.8753 25.2993C33.0451 25.4266 32.1985 25.3869 31.3578 25.3775C31.206 25.3764 31.1593 25.3005 31.1593 25.1615C31.1616 23.9842 31.1628 22.8058 31.1581 21.6274C31.157 21.4417 31.2469 21.4055 31.4045 21.4078C31.8833 21.4125 32.362 21.4219 32.8396 21.4055C33.2086 21.3927 33.5694 21.3401 33.9232 21.1965C34.6927 20.8835 35.1469 19.7728 35.0161 19.1666C34.7896 18.1214 33.8193 17.5211 32.9797 17.5795C32.4683 17.6145 31.9533 17.5865 31.4395 17.5888C31.2516 17.5888 31.1535 17.5316 31.1558 17.312C31.1651 16.1686 31.1616 15.0264 31.1581 13.8831C31.1581 13.7242 31.1757 13.5958 31.4033 13.6039ZM37.7193 22.306C37.9026 22.0327 38.0392 21.7349 38.1584 21.4289C38.4911 20.5681 38.5787 19.6712 38.4725 18.7649C38.3755 17.9287 38.0673 17.1567 37.592 16.4548C36.9405 15.4948 36.0741 14.8139 34.9869 14.4075C33.9629 14.0256 32.8991 14.0816 31.8377 14.0875C31.6602 14.0875 31.6147 14.1762 31.6159 14.3374C31.6194 15.1794 31.6205 16.0215 31.6135 16.8635C31.6124 17.0504 31.6848 17.1146 31.8646 17.1111C32.2534 17.1041 32.6434 17.1158 33.0334 17.11C34.5736 17.0843 35.7062 18.4472 35.4517 19.8954C35.2789 20.8846 34.3727 21.7407 33.3662 21.8341C32.8606 21.8808 32.3573 21.8587 31.8529 21.8668C31.6859 21.8692 31.6147 21.9217 31.6159 22.0969C31.6205 22.9577 31.6205 23.8172 31.6159 24.6768C31.6147 24.8415 31.6637 24.9127 31.8424 24.9186C32.5523 24.9407 33.2646 24.9221 33.9594 24.8018C35.5544 24.5273 36.8237 23.7226 37.7193 22.306Z" fill="#DAA520"/>
<path d="M16.5109 38.1754C15.5849 37.6125 14.8668 36.8802 14.3542 35.9401C14.0424 35.3666 13.8217 34.7617 13.7061 34.1252C13.622 33.6662 13.6033 33.1955 13.6138 32.7248C13.6232 32.2997 13.6255 31.8746 13.6115 31.4495C13.6033 31.2241 13.6676 31.1365 13.9081 31.1388C15.0419 31.1482 16.1757 31.147 17.3095 31.1388C17.5139 31.1377 17.591 31.1984 17.5863 31.411C17.5746 31.9786 17.5769 32.545 17.5851 33.1126C17.6003 34.1707 18.4912 35.0431 19.5281 35.0244C20.4249 35.0081 21.1944 34.305 21.3497 33.4209C21.4653 32.7681 21.4139 32.1152 21.4233 31.4623C21.4268 31.2323 21.4758 31.1342 21.7315 31.1377C22.8572 31.1505 23.9816 31.1435 25.1073 31.1423C25.2602 31.1412 25.3922 31.1482 25.3934 31.3561C25.3969 32.2927 25.4226 33.2294 25.2474 34.1555C24.9146 35.919 23.9723 37.2691 22.4368 38.1778C21.0776 38.9813 19.6122 39.202 18.0685 38.8131C17.5244 38.6765 17.0071 38.4767 16.5109 38.1754ZM15.3584 31.6025C15.0127 31.6025 14.6671 31.6083 14.3215 31.6002C14.1393 31.5966 14.0634 31.6656 14.0716 31.8501C14.0996 32.4329 14.0599 33.0145 14.116 33.5996C14.2502 34.9859 14.8364 36.1421 15.8289 37.0916C16.7409 37.9652 17.8724 38.4043 19.1066 38.5106C20.2042 38.6052 21.2493 38.3249 22.2068 37.769C23.4153 37.0671 24.2187 36.0405 24.6402 34.7079C24.771 34.2933 24.8294 33.8694 24.8761 33.4384C24.931 32.9175 24.9064 32.3955 24.9298 31.8758C24.9368 31.7064 24.8761 31.5966 24.6671 31.599C23.8158 31.6072 22.9658 31.6048 22.1145 31.6002C21.9382 31.599 21.8822 31.6737 21.8857 31.8396C21.8915 32.1678 21.8973 32.4959 21.8833 32.8229C21.8658 33.2562 21.8238 33.6919 21.6393 34.0913C21.2306 34.9801 20.2673 35.5827 19.1463 35.4554C18.2005 35.3491 17.2266 34.3692 17.1589 33.4606C17.1192 32.9374 17.1332 32.4165 17.1297 31.8956C17.1286 31.6562 17.048 31.5908 16.8203 31.5978C16.3509 31.613 15.8815 31.6025 15.3584 31.6025Z" fill="#DAA520"/>
<path d="M25.3934 12.0122C25.3934 12.456 25.4063 12.8717 25.3888 13.2875C25.3794 13.5316 25.46 13.6087 25.7052 13.6075C27.1485 13.5982 28.5929 13.6028 30.0361 13.604C30.4518 13.604 30.4518 13.6052 30.4518 14.0058C30.4518 15.0954 30.4436 16.1851 30.4565 17.2747C30.46 17.527 30.3666 17.5959 30.133 17.5947C27.3435 17.5912 24.5539 17.5912 21.7643 17.5959C21.5214 17.5971 21.4233 17.5293 21.4233 17.2642C21.4327 14.4566 21.4315 11.6478 21.4245 8.84013C21.4233 8.60889 21.4899 8.53298 21.7246 8.53531C22.8409 8.54466 23.9572 8.54699 25.0723 8.53415C25.3386 8.53064 25.4004 8.63225 25.3981 8.87634C25.3876 9.91344 25.3934 10.9494 25.3934 12.0122ZM21.8869 16.4525C21.8869 16.5494 21.8869 16.6475 21.8881 16.7445C21.8881 17.1065 21.8881 17.1077 22.2559 17.1077C24.7092 17.1089 27.1636 17.1054 29.6181 17.1135C29.8715 17.1135 29.9567 17.0388 29.952 16.7819C29.9392 16.011 29.9485 15.2402 29.9497 14.4694C29.9497 14.0887 29.9485 14.0875 29.5667 14.0863C28.1573 14.0852 26.7491 14.0852 25.3397 14.084C24.9369 14.084 24.938 14.0828 24.9357 13.6951C24.9275 12.8355 24.9135 11.9759 24.9112 11.1164C24.91 10.5231 24.9217 9.92979 24.9357 9.33649C24.9427 9.09474 24.868 8.98846 24.6018 8.9943C23.8042 9.00948 23.0067 9.00948 22.2092 8.9943C21.9476 8.98846 21.8811 9.07605 21.8822 9.32715C21.8904 11.6851 21.8869 14.042 21.8869 16.4525Z" fill="#DAA520"/>
<path d="M17.5842 9.61909C17.5842 12.171 17.5842 14.696 17.5842 17.221C17.583 17.5923 17.583 17.5947 17.2187 17.5947C14.4817 17.5947 11.7446 17.5935 9.00643 17.5923C8.56154 17.5923 8.56038 17.5888 8.56038 17.1591C8.56038 16.0869 8.56855 15.0148 8.55454 13.9427C8.55103 13.667 8.64562 13.597 8.90717 13.5993C10.3598 13.6086 11.8124 13.604 13.2649 13.6028C13.6152 13.6028 13.6152 13.6016 13.6152 13.2489C13.6164 11.7961 13.6152 10.3432 13.6164 8.88916C13.6164 8.54112 13.6176 8.53996 13.9749 8.53996C15.0725 8.53879 16.1713 8.54463 17.2701 8.53412C17.5094 8.53178 17.6064 8.59952 17.5877 8.84828C17.569 9.09471 17.583 9.34464 17.5842 9.61909ZM17.1241 14.0606C17.1241 12.4734 17.1194 10.8874 17.1288 9.30026C17.1299 9.07135 17.0657 8.99076 16.8287 8.99427C16.023 9.00712 15.2161 9.00945 14.4104 8.9931C14.1349 8.98726 14.066 9.08186 14.0683 9.34581C14.08 10.7987 14.0741 12.2527 14.0741 13.7056C14.0741 14.0863 14.073 14.0863 13.6911 14.0863C12.2642 14.0851 10.8385 14.0851 9.41161 14.0863C9.02044 14.0863 9.02044 14.0875 9.02044 14.4857C9.02044 15.2565 9.02978 16.0274 9.0146 16.7982C9.00993 17.0504 9.10101 17.1123 9.33688 17.1123C11.8357 17.1053 14.3345 17.103 16.8334 17.1112C17.0762 17.1112 17.1299 17.0224 17.1276 16.7993C17.1171 15.9036 17.1229 15.009 17.1241 14.0606Z" fill="#DAA520"/>
<path d="M22.7768 30.4357C22.4043 30.4357 22.0587 30.4252 21.713 30.4392C21.4935 30.4485 21.4235 30.3703 21.4246 30.1507C21.4328 28.546 21.4293 26.9425 21.4293 25.339C21.4293 24.1337 21.4351 22.9273 21.4246 21.7231C21.4223 21.4826 21.49 21.4031 21.7376 21.4043C24.5376 21.4113 27.3377 21.4113 30.1378 21.4043C30.376 21.4043 30.4601 21.4685 30.4566 21.7173C30.4449 22.8338 30.4449 23.9503 30.4554 25.0668C30.4589 25.3144 30.376 25.3845 30.1355 25.3833C28.6829 25.374 27.2303 25.3787 25.7765 25.3787C25.3935 25.3787 25.3935 25.3787 25.3935 25.7501C25.3935 27.1948 25.3947 28.6395 25.3935 30.0841C25.3935 30.4345 25.3912 30.4345 25.0362 30.4357C24.2913 30.4357 23.5475 30.4357 22.7768 30.4357ZM21.887 28.6862C21.887 29.005 21.8975 29.325 21.8835 29.6438C21.8742 29.8622 21.9536 29.9393 22.1731 29.937C22.9706 29.9276 23.7681 29.9241 24.5657 29.9382C24.8366 29.9428 24.9136 29.8459 24.9136 29.5831C24.9113 28.2272 24.9218 26.8724 24.9358 25.5165C24.9428 24.8251 24.8342 24.922 25.5477 24.9185C26.8765 24.9115 28.2065 24.9162 29.5353 24.9162C29.9463 24.9162 29.9463 24.915 29.9475 24.4946C29.9487 23.7319 29.9381 22.9693 29.9545 22.2078C29.9603 21.938 29.8751 21.8633 29.6065 21.8645C27.1521 21.8738 24.6976 21.8703 22.2432 21.8703C21.8905 21.8703 21.8894 21.8715 21.8894 22.2253C21.8882 24.3614 21.887 26.4975 21.887 28.6862Z" fill="#DAA520"/>
<path d="M16.0765 30.4357C15.3759 30.4357 14.7021 30.4357 14.0295 30.4357C13.615 30.4357 13.615 30.4357 13.615 30.0082C13.615 28.5729 13.6092 27.1364 13.622 25.701C13.6243 25.4417 13.5461 25.3705 13.2916 25.3728C11.8296 25.3833 10.3665 25.3728 8.9046 25.3833C8.64304 25.3857 8.55079 25.3168 8.55429 25.0412C8.56947 23.934 8.56714 22.8256 8.55546 21.7185C8.55313 21.472 8.63136 21.4031 8.8719 21.4043C11.6732 21.4113 14.4732 21.4113 17.2733 21.4043C17.5197 21.4031 17.5886 21.4802 17.5874 21.722C17.5804 24.5226 17.5804 27.3244 17.5886 30.125C17.5886 30.3679 17.5174 30.452 17.2722 30.4404C16.8833 30.4228 16.4922 30.4357 16.0765 30.4357ZM15.8896 21.8703C13.7026 21.8703 11.5144 21.8726 9.32613 21.8656C9.09843 21.8656 9.01436 21.931 9.01786 22.167C9.02954 22.9471 9.02137 23.7261 9.02137 24.5063C9.02137 24.9139 9.02253 24.9139 9.41954 24.915C10.8546 24.9162 12.2897 24.9162 13.7236 24.9185C14.0716 24.9185 14.0727 24.9209 14.0727 25.2736C14.0739 26.7264 14.0751 28.1793 14.0716 29.6322C14.0716 29.8132 14.0867 29.9382 14.3214 29.9358C15.1715 29.9265 16.0216 29.93 16.8716 29.9323C17.048 29.9335 17.1262 29.8728 17.125 29.6847C17.1215 27.1597 17.1215 24.6347 17.1262 22.1109C17.1262 21.9205 17.0526 21.8633 16.8728 21.868C16.5634 21.8773 16.2528 21.8703 15.8896 21.8703Z" fill="#DAA520"/>
<path d="M1.68873 43.25C2.2912 43.25 2.82064 42.9405 3.08308 42.474L2.79782 42.317C2.59928 42.6933 2.17139 42.9449 1.68873 42.9449C0.874034 42.9449 0.322913 42.3571 0.322913 41.6256C0.322913 40.8941 0.874034 40.3051 1.68873 40.3051C2.17139 40.3051 2.59928 40.5567 2.79782 40.9341L3.08308 40.7727C2.81608 40.3051 2.28664 40 1.68873 40C0.699456 40 0 40.727 0 41.6256C0 42.523 0.699456 43.25 1.68873 43.25Z" fill="#DAA520"/>
<path d="M5.29116 43.25C6.22909 43.25 6.95593 42.523 6.95593 41.6256C6.95593 40.727 6.22909 40 5.29116 40C4.35208 40 3.62524 40.727 3.62524 41.6256C3.62524 42.523 4.35208 43.25 5.29116 43.25ZM5.29116 42.9449C4.5278 42.9449 3.94816 42.3571 3.94816 41.6256C3.94816 40.8941 4.5278 40.3051 5.29116 40.3051C6.05451 40.3051 6.63416 40.8941 6.63416 41.6256C6.63416 42.3571 6.05451 42.9449 5.29116 42.9449Z" fill="#DAA520"/>
<path d="M9.65309 40V42.6465L7.85824 40H7.58325V43.25H7.90502V40.6035L9.69873 43.25H9.97486V40H9.65309Z" fill="#DAA520"/>
<path d="M12.5371 43.25C13.1396 43.25 13.669 42.9405 13.9315 42.474L13.6462 42.317C13.4477 42.6933 13.0198 42.9449 12.5371 42.9449C11.7224 42.9449 11.1713 42.3571 11.1713 41.6256C11.1713 40.8941 11.7224 40.3051 12.5371 40.3051C13.0198 40.3051 13.4477 40.5567 13.6462 40.9341L13.9315 40.7727C13.6645 40.3051 13.135 40 12.5371 40C11.5478 40 10.8484 40.727 10.8484 41.6256C10.8484 42.523 11.5478 43.25 12.5371 43.25Z" fill="#DAA520"/>
<path d="M16.8015 43.25H17.1426L15.9046 40H15.5737L14.3357 43.25H14.6769L14.9758 42.4507H16.5025L16.8015 43.25ZM15.0911 42.1444L15.7392 40.4031L16.3884 42.1444H15.0911Z" fill="#DAA520"/>
<path d="M19.7791 40H17.4788V40.3063H18.468V43.25H18.7898V40.3063H19.7791V40Z" fill="#DAA520"/>
<path d="M20.7588 42.9437V41.7644H22.1851V41.458H20.7588V40.3063H22.3003V40H20.437V43.25H22.3231V42.9437H20.7588Z" fill="#DAA520"/>
<path d="M25.1431 40V42.6465L23.3482 40H23.0732V43.25H23.395V40.6035L25.1887 43.25H25.4649V40H25.1431Z" fill="#DAA520"/>
<path d="M28.5424 43.25H28.8836L27.6456 40H27.3147L26.0767 43.25H26.4178L26.7168 42.4507H28.2435L28.5424 43.25ZM26.832 42.1444L27.4801 40.4031L28.1294 42.1444H26.832Z" fill="#DAA520"/>
<path d="M30.7373 40H29.4958V43.25H30.7373C31.625 43.25 32.256 42.521 32.256 41.625C32.256 40.729 31.625 40 30.7373 40ZM30.7373 42.9437H29.8176V40.3063H30.7373C31.455 40.3063 31.9434 40.896 31.9434 41.625C31.9434 42.354 31.455 42.9437 30.7373 42.9437Z" fill="#DAA520"/>
<path d="M34.4872 43.25C35.4251 43.25 36.152 42.523 36.152 41.6256C36.152 40.727 35.4251 40 34.4872 40C33.5481 40 32.8213 40.727 32.8213 41.6256C32.8213 42.523 33.5481 43.25 34.4872 43.25ZM34.4872 42.9449C33.7238 42.9449 33.1442 42.3571 33.1442 41.6256C33.1442 40.8941 33.7238 40.3051 34.4872 40.3051C35.2506 40.3051 35.8302 40.8941 35.8302 41.6256C35.8302 42.3571 35.2506 42.9449 34.4872 42.9449Z" fill="#DAA520"/>
<path d="M37.915 43.25C38.5585 43.25 39.0001 42.9093 39.0001 42.3704C39.0001 41.787 38.4764 41.6256 37.891 41.4363C37.454 41.2971 37.1779 41.1902 37.1779 40.8484C37.1779 40.5033 37.4586 40.3051 37.8454 40.3051C38.2687 40.3051 38.5174 40.5433 38.6372 40.8261L38.9088 40.6781C38.7422 40.3051 38.3748 40 37.8454 40C37.3114 40 36.8561 40.3095 36.8561 40.8618C36.8561 41.4407 37.3627 41.5755 37.8864 41.7469C38.3611 41.8995 38.6783 42.0164 38.6783 42.3793C38.6783 42.7167 38.4068 42.9449 37.9195 42.9449C37.4129 42.9449 37.1094 42.7022 36.9941 42.3259L36.718 42.4829C36.8835 42.9583 37.3205 43.25 37.915 43.25Z" fill="#DAA520"/>
</svg>
