<svg width="187" height="77" viewBox="0 0 187 77" fill="none" xmlns="http://www.w3.org/2000/svg">
<rect x="12.5" y="12.5" width="162" height="52" fill="#1A1A1D"/>
<rect x="12.5" y="12.5" width="162" height="52" stroke="black"/>
<g filter="url(#filter0_d_213_102)">
<g filter="url(#filter1_b_213_102)">
<path d="M12 22C12 16.4772 16.4772 12 22 12H165C170.523 12 175 16.4772 175 22V55C175 60.5229 170.523 65 165 65H22C16.4772 65 12 60.5228 12 55V22Z" fill="#1A1A1D"/>
<path d="M12.5 22C12.5 16.7533 16.7533 12.5 22 12.5H165C170.247 12.5 174.5 16.7533 174.5 22V55C174.5 60.2467 170.247 64.5 165 64.5H22C16.7533 64.5 12.5 60.2467 12.5 55V22Z" stroke="#DAA520"/>
</g>
</g>
<path d="M73.7784 45H69.1378V31.9091H73.8168C75.1335 31.9091 76.267 32.1712 77.2173 32.6953C78.1676 33.2152 78.8984 33.9631 79.4098 34.9389C79.9254 35.9148 80.1832 37.0824 80.1832 38.4418C80.1832 39.8054 79.9254 40.9773 79.4098 41.9574C78.8984 42.9375 78.1634 43.6896 77.2045 44.2138C76.25 44.7379 75.108 45 73.7784 45ZM71.9055 42.6286H73.6634C74.4815 42.6286 75.1697 42.4837 75.728 42.1939C76.2905 41.8999 76.7124 41.446 76.9936 40.8324C77.2791 40.2145 77.4219 39.4176 77.4219 38.4418C77.4219 37.4744 77.2791 36.6839 76.9936 36.0703C76.7124 35.4567 76.2926 35.005 75.7344 34.7152C75.1761 34.4254 74.4879 34.2805 73.6697 34.2805H71.9055V42.6286ZM86.1568 45.1918C85.1468 45.1918 84.2775 44.9872 83.5488 44.5781C82.8244 44.1648 82.2662 43.581 81.8741 42.8267C81.4821 42.0682 81.286 41.1712 81.286 40.1357C81.286 39.1257 81.4821 38.2393 81.8741 37.4766C82.2662 36.7138 82.818 36.1193 83.5297 35.6932C84.2456 35.267 85.085 35.054 86.0481 35.054C86.6958 35.054 87.2988 35.1584 87.8571 35.3672C88.4196 35.5717 88.9096 35.8807 89.3272 36.294C89.7491 36.7074 90.0772 37.2273 90.3116 37.8537C90.546 38.4759 90.6632 39.2045 90.6632 40.0398V40.7876H82.3727V39.1001H88.1C88.1 38.7081 88.0147 38.3608 87.8443 38.0582C87.6738 37.7557 87.4373 37.5192 87.1348 37.3487C86.8365 37.174 86.4892 37.0866 86.0929 37.0866C85.6795 37.0866 85.313 37.1825 84.9934 37.3743C84.6781 37.5618 84.4309 37.8153 84.252 38.1349C84.073 38.4503 83.9814 38.8018 83.9771 39.1896V40.794C83.9771 41.2798 84.0666 41.6996 84.2456 42.0533C84.4288 42.407 84.6866 42.6797 85.019 42.8714C85.3514 43.0632 85.7456 43.1591 86.2015 43.1591C86.5041 43.1591 86.7811 43.1165 87.0325 43.0312C87.2839 42.946 87.4991 42.8182 87.6781 42.6477C87.8571 42.4773 87.9934 42.2685 88.0872 42.0213L90.6056 42.1875C90.4778 42.7926 90.2157 43.321 89.8194 43.7727C89.4274 44.2202 88.9203 44.5696 88.2981 44.821C87.6802 45.0682 86.9664 45.1918 86.1568 45.1918ZM91.9402 48.6818V35.1818H94.6248V36.831H94.7463C94.8656 36.5668 95.0382 36.2983 95.264 36.0256C95.4941 35.7486 95.7924 35.5185 96.1589 35.3352C96.5297 35.1477 96.9899 35.054 97.5396 35.054C98.2555 35.054 98.916 35.2415 99.5211 35.6165C100.126 35.9872 100.61 36.5476 100.972 37.2976C101.334 38.0433 101.515 38.9787 101.515 40.1037C101.515 41.1989 101.339 42.1236 100.985 42.8778C100.635 43.6278 100.158 44.1967 99.5531 44.5845C98.9522 44.968 98.2789 45.1598 97.5332 45.1598C97.0048 45.1598 96.5552 45.0724 96.1845 44.8977C95.818 44.723 95.5176 44.5036 95.2832 44.2393C95.0488 43.9709 94.8699 43.7003 94.7463 43.4276H94.6632V48.6818H91.9402ZM94.6056 40.0909C94.6056 40.6747 94.6866 41.1839 94.8485 41.6186C95.0105 42.0533 95.2449 42.392 95.5517 42.6349C95.8585 42.8736 96.2314 42.9929 96.6703 42.9929C97.1135 42.9929 97.4885 42.8714 97.7953 42.6286C98.1021 42.3814 98.3343 42.0405 98.492 41.6058C98.6539 41.1669 98.7349 40.6619 98.7349 40.0909C98.7349 39.5241 98.6561 39.0256 98.4984 38.5952C98.3407 38.1648 98.1085 37.8281 97.8017 37.5852C97.4949 37.3423 97.1177 37.2209 96.6703 37.2209C96.2271 37.2209 95.8521 37.3381 95.5453 37.5724C95.2427 37.8068 95.0105 38.1392 94.8485 38.5696C94.6866 39 94.6056 39.5071 94.6056 40.0909ZM107.267 45.1918C106.274 45.1918 105.415 44.9808 104.691 44.5589C103.971 44.1328 103.415 43.5405 103.023 42.782C102.631 42.0192 102.434 41.1349 102.434 40.1293C102.434 39.1151 102.631 38.2287 103.023 37.4702C103.415 36.7074 103.971 36.1151 104.691 35.6932C105.415 35.267 106.274 35.054 107.267 35.054C108.26 35.054 109.116 35.267 109.836 35.6932C110.561 36.1151 111.119 36.7074 111.511 37.4702C111.903 38.2287 112.099 39.1151 112.099 40.1293C112.099 41.1349 111.903 42.0192 111.511 42.782C111.119 43.5405 110.561 44.1328 109.836 44.5589C109.116 44.9808 108.26 45.1918 107.267 45.1918ZM107.28 43.0824C107.731 43.0824 108.108 42.9545 108.411 42.6989C108.714 42.4389 108.942 42.0852 109.095 41.6378C109.253 41.1903 109.331 40.6811 109.331 40.1101C109.331 39.5391 109.253 39.0298 109.095 38.5824C108.942 38.1349 108.714 37.7812 108.411 37.5213C108.108 37.2614 107.731 37.1314 107.28 37.1314C106.824 37.1314 106.44 37.2614 106.129 37.5213C105.822 37.7812 105.59 38.1349 105.432 38.5824C105.279 39.0298 105.202 39.5391 105.202 40.1101C105.202 40.6811 105.279 41.1903 105.432 41.6378C105.59 42.0852 105.822 42.4389 106.129 42.6989C106.44 42.9545 106.824 43.0824 107.28 43.0824ZM121.539 37.9815L119.046 38.1349C119.003 37.9219 118.912 37.7301 118.771 37.5597C118.631 37.3849 118.445 37.2464 118.215 37.1442C117.989 37.0376 117.719 36.9844 117.403 36.9844C116.981 36.9844 116.626 37.0739 116.336 37.2528C116.046 37.4276 115.901 37.6619 115.901 37.956C115.901 38.1903 115.995 38.3885 116.182 38.5504C116.37 38.7124 116.692 38.8423 117.148 38.9403L118.925 39.2983C119.879 39.4943 120.591 39.8097 121.059 40.2443C121.528 40.679 121.763 41.25 121.763 41.9574C121.763 42.6009 121.573 43.1655 121.194 43.6513C120.819 44.1371 120.303 44.5163 119.647 44.7891C118.995 45.0575 118.243 45.1918 117.39 45.1918C116.091 45.1918 115.055 44.9212 114.284 44.38C113.517 43.8345 113.067 43.093 112.935 42.1555L115.613 42.0149C115.694 42.4112 115.89 42.7138 116.202 42.9226C116.513 43.1271 116.911 43.2294 117.397 43.2294C117.874 43.2294 118.258 43.1378 118.547 42.9545C118.841 42.767 118.991 42.5263 118.995 42.2322C118.991 41.9851 118.886 41.7827 118.682 41.625C118.477 41.4631 118.162 41.3395 117.736 41.2543L116.035 40.9155C115.077 40.7237 114.363 40.3913 113.894 39.9183C113.43 39.4453 113.197 38.8423 113.197 38.1094C113.197 37.4787 113.368 36.9354 113.709 36.4794C114.054 36.0234 114.537 35.6719 115.16 35.4247C115.786 35.1776 116.519 35.054 117.358 35.054C118.599 35.054 119.574 35.3161 120.286 35.8402C121.002 36.3643 121.42 37.0781 121.539 37.9815ZM122.977 45V35.1818H125.7V45H122.977ZM124.345 33.9162C123.94 33.9162 123.593 33.782 123.303 33.5135C123.018 33.2408 122.875 32.9148 122.875 32.5355C122.875 32.1605 123.018 31.8388 123.303 31.5703C123.593 31.2976 123.94 31.1612 124.345 31.1612C124.75 31.1612 125.095 31.2976 125.381 31.5703C125.67 31.8388 125.815 32.1605 125.815 32.5355C125.815 32.9148 125.67 33.2408 125.381 33.5135C125.095 33.782 124.75 33.9162 124.345 33.9162ZM132.604 35.1818V37.2273H126.691V35.1818H132.604ZM128.034 32.8295H130.757V41.983C130.757 42.2344 130.795 42.4304 130.872 42.571C130.948 42.7074 131.055 42.8033 131.191 42.8587C131.332 42.9141 131.494 42.9418 131.677 42.9418C131.805 42.9418 131.933 42.9311 132.061 42.9098C132.188 42.8842 132.286 42.8651 132.355 42.8523L132.783 44.8786C132.646 44.9212 132.455 44.9702 132.208 45.0256C131.96 45.0852 131.66 45.1214 131.306 45.1342C130.65 45.1598 130.075 45.0724 129.58 44.8722C129.09 44.6719 128.709 44.3608 128.436 43.9389C128.164 43.517 128.029 42.9844 128.034 42.3409V32.8295ZM136.677 45.1854C136.051 45.1854 135.493 45.0767 135.003 44.8594C134.513 44.6378 134.125 44.3118 133.839 43.8814C133.558 43.4467 133.417 42.9055 133.417 42.2578C133.417 41.7124 133.518 41.2543 133.718 40.8835C133.918 40.5128 134.191 40.2145 134.536 39.9886C134.881 39.7628 135.273 39.5923 135.712 39.4773C136.155 39.3622 136.62 39.2812 137.106 39.2344C137.677 39.1747 138.137 39.1193 138.486 39.0682C138.836 39.0128 139.089 38.9318 139.247 38.8253C139.405 38.7187 139.483 38.5611 139.483 38.3523V38.3139C139.483 37.9091 139.356 37.5959 139.1 37.3743C138.849 37.1527 138.491 37.0419 138.026 37.0419C137.536 37.0419 137.146 37.1506 136.856 37.3679C136.567 37.581 136.375 37.8494 136.281 38.1733L133.763 37.9688C133.89 37.3722 134.142 36.8565 134.517 36.4219C134.892 35.983 135.376 35.6463 135.968 35.4119C136.564 35.1733 137.255 35.054 138.039 35.054C138.584 35.054 139.106 35.1179 139.605 35.2457C140.108 35.3736 140.553 35.5717 140.941 35.8402C141.333 36.1087 141.642 36.4538 141.868 36.8757C142.094 37.2933 142.206 37.794 142.206 38.3778V45H139.624V43.6385H139.547C139.39 43.9453 139.179 44.2159 138.915 44.4503C138.65 44.6804 138.333 44.8615 137.962 44.9936C137.591 45.1214 137.163 45.1854 136.677 45.1854ZM137.457 43.3061C137.858 43.3061 138.211 43.2273 138.518 43.0696C138.825 42.9077 139.066 42.6903 139.241 42.4176C139.415 42.1449 139.503 41.8359 139.503 41.4908V40.4489C139.417 40.5043 139.3 40.5554 139.151 40.6023C139.006 40.6449 138.842 40.6854 138.659 40.7237C138.476 40.7578 138.292 40.7898 138.109 40.8196C137.926 40.8452 137.76 40.8686 137.611 40.8899C137.291 40.9368 137.012 41.0114 136.773 41.1136C136.535 41.2159 136.349 41.3544 136.217 41.5291C136.085 41.6996 136.019 41.9126 136.019 42.1683C136.019 42.5391 136.153 42.8224 136.422 43.0185C136.694 43.2102 137.04 43.3061 137.457 43.3061ZM143.819 45V35.1818H146.459V36.8949H146.561C146.74 36.2855 147.041 35.8253 147.463 35.5142C147.884 35.1989 148.37 35.0412 148.92 35.0412C149.056 35.0412 149.203 35.0497 149.361 35.0668C149.519 35.0838 149.657 35.1072 149.776 35.1371V37.5533C149.649 37.5149 149.472 37.4808 149.246 37.451C149.02 37.4212 148.813 37.4062 148.626 37.4062C148.225 37.4062 147.867 37.4936 147.552 37.6683C147.241 37.8388 146.994 38.0774 146.811 38.3842C146.632 38.6911 146.542 39.0447 146.542 39.4453V45H143.819Z" fill="#DAA520"/>
<path fill-rule="evenodd" clip-rule="evenodd" d="M35 33H32C30.3431 33 29 34.3431 29 36V42C29 43.6569 30.3431 45 32 45H48C49.6569 45 51 43.6569 51 42V36C51 34.3431 49.6569 33 48 33H45V35H48C48.5523 35 49 35.4477 49 36V42C49 42.5523 48.5523 43 48 43H32C31.4477 43 31 42.5523 31 42V36C31 35.4477 31.4477 35 32 35H35V33Z" fill="#DAA520"/>
<path fill-rule="evenodd" clip-rule="evenodd" d="M40.2999 34.9112C40.3922 34.8603 41.2518 34.1277 42.2102 33.2832C43.547 32.1051 43.9612 31.7115 43.9898 31.5921C44.0664 31.2711 43.6992 30.9477 43.3273 31.0088C43.1927 31.0309 42.8589 31.2942 41.8942 32.1394C41.2024 32.7454 40.6174 33.2412 40.5941 33.2412C40.5707 33.2412 40.5517 31.9084 40.5517 30.2794V27.3177L40.3896 27.1589C40.2554 27.0274 40.1869 27 39.9923 27C39.7976 27 39.7291 27.0274 39.595 27.1589L39.4329 27.3177V30.2794C39.4329 31.9084 39.4142 33.2412 39.3914 33.2412C39.3686 33.2412 38.7824 32.7448 38.0888 32.1381C37.0292 31.2112 36.7968 31.0308 36.634 31.0094C36.2515 30.9592 35.9381 31.2688 36.0104 31.6253C36.0381 31.7613 39.4646 34.8148 39.7238 34.9344C39.9281 35.0286 40.0994 35.0217 40.2999 34.9112Z" fill="#DAA520"/>
<defs>
<filter id="filter0_d_213_102" x="0" y="0" width="187" height="77" filterUnits="userSpaceOnUse" color-interpolation-filters="sRGB">
<feFlood flood-opacity="0" result="BackgroundImageFix"/>
<feColorMatrix in="SourceAlpha" type="matrix" values="0 0 0 0 0 0 0 0 0 0 0 0 0 0 0 0 0 0 127 0" result="hardAlpha"/>
<feOffset/>
<feGaussianBlur stdDeviation="6"/>
<feComposite in2="hardAlpha" operator="out"/>
<feColorMatrix type="matrix" values="0 0 0 0 0 0 0 0 0 0 0 0 0 0 0 0 0 0 0.1 0"/>
<feBlend mode="normal" in2="BackgroundImageFix" result="effect1_dropShadow_213_102"/>
<feBlend mode="normal" in="SourceGraphic" in2="effect1_dropShadow_213_102" result="shape"/>
</filter>
<filter id="filter1_b_213_102" x="-8" y="-8" width="203" height="93" filterUnits="userSpaceOnUse" color-interpolation-filters="sRGB">
<feFlood flood-opacity="0" result="BackgroundImageFix"/>
<feGaussianBlur in="BackgroundImageFix" stdDeviation="10"/>
<feComposite in2="SourceAlpha" operator="in" result="effect1_backgroundBlur_213_102"/>
<feBlend mode="normal" in="SourceGraphic" in2="effect1_backgroundBlur_213_102" result="shape"/>
</filter>
</defs>
</svg>
