<svg width="187" height="77" viewBox="0 0 187 77" fill="none" xmlns="http://www.w3.org/2000/svg">
<g filter="url(#filter0_d_213_120)">
<g filter="url(#filter1_b_213_120)">
<path d="M12 22C12 16.4772 16.4772 12 22 12H165C170.523 12 175 16.4772 175 22V55C175 60.5229 170.523 65 165 65H22C16.4772 65 12 60.5228 12 55V22Z" fill="#1A1A1D"/>
<path d="M12.5 22C12.5 16.7533 16.7533 12.5 22 12.5H165C170.247 12.5 174.5 16.7533 174.5 22V55C174.5 60.2467 170.247 64.5 165 64.5H22C16.7533 64.5 12.5 60.2467 12.5 55V22Z" stroke="#DAA520"/>
</g>
</g>
<g filter="url(#filter2_d_213_120)">
<path d="M71.8433 45V31.9091H77.008C78.0009 31.9091 78.8468 32.0987 79.5457 32.478C80.2445 32.853 80.7772 33.375 81.1437 34.044C81.5144 34.7088 81.6998 35.4759 81.6998 36.3452C81.6998 37.2145 81.5123 37.9815 81.1373 38.6463C80.7623 39.3111 80.219 39.8288 79.5073 40.1996C78.7999 40.5703 77.9434 40.7557 76.9377 40.7557H73.6458V38.5376H76.4903C77.023 38.5376 77.4619 38.446 77.807 38.2628C78.1565 38.0753 78.4164 37.8175 78.5869 37.4893C78.7616 37.157 78.8489 36.7756 78.8489 36.3452C78.8489 35.9105 78.7616 35.5312 78.5869 35.2074C78.4164 34.8793 78.1565 34.6257 77.807 34.4467C77.4576 34.2635 77.0144 34.1719 76.4775 34.1719H74.611V45H71.8433ZM85.4825 45.1854C84.8561 45.1854 84.2978 45.0767 83.8078 44.8594C83.3177 44.6378 82.9299 44.3118 82.6444 43.8814C82.3632 43.4467 82.2225 42.9055 82.2225 42.2578C82.2225 41.7124 82.3227 41.2543 82.523 40.8835C82.7232 40.5128 82.996 40.2145 83.3411 39.9886C83.6863 39.7628 84.0784 39.5923 84.5173 39.4773C84.9605 39.3622 85.4249 39.2812 85.9107 39.2344C86.4818 39.1747 86.942 39.1193 87.2914 39.0682C87.6409 39.0128 87.8944 38.9318 88.0521 38.8253C88.2097 38.7187 88.2886 38.5611 88.2886 38.3523V38.3139C88.2886 37.9091 88.1607 37.5959 87.9051 37.3743C87.6536 37.1527 87.2957 37.0419 86.8312 37.0419C86.3411 37.0419 85.9512 37.1506 85.6614 37.3679C85.3717 37.581 85.1799 37.8494 85.0862 38.1733L82.5677 37.9688C82.6955 37.3722 82.947 36.8565 83.322 36.4219C83.697 35.983 84.1806 35.6463 84.773 35.4119C85.3695 35.1733 86.0599 35.054 86.844 35.054C87.3894 35.054 87.9114 35.1179 88.41 35.2457C88.9129 35.3736 89.3582 35.5717 89.746 35.8402C90.138 36.1087 90.447 36.4538 90.6728 36.8757C90.8987 37.2933 91.0116 37.794 91.0116 38.3778V45H88.4292V43.6385H88.3525C88.1948 43.9453 87.9839 44.2159 87.7197 44.4503C87.4555 44.6804 87.138 44.8615 86.7673 44.9936C86.3965 45.1214 85.9683 45.1854 85.4825 45.1854ZM86.2623 43.3061C86.6629 43.3061 87.0166 43.2273 87.3234 43.0696C87.6302 42.9077 87.871 42.6903 88.0457 42.4176C88.2204 42.1449 88.3078 41.8359 88.3078 41.4908V40.4489C88.2225 40.5043 88.1053 40.5554 87.9562 40.6023C87.8113 40.6449 87.6472 40.6854 87.464 40.7237C87.2808 40.7578 87.0975 40.7898 86.9143 40.8196C86.7311 40.8452 86.5649 40.8686 86.4157 40.8899C86.0961 40.9368 85.817 41.0114 85.5784 41.1136C85.3397 41.2159 85.1543 41.3544 85.0222 41.5291C84.8901 41.6996 84.8241 41.9126 84.8241 42.1683C84.8241 42.5391 84.9583 42.8224 85.2268 43.0185C85.4995 43.2102 85.8447 43.3061 86.2623 43.3061ZM97.0475 48.8864C96.1654 48.8864 95.409 48.7649 94.7783 48.522C94.1519 48.2834 93.6533 47.9574 93.2825 47.544C92.9118 47.1307 92.671 46.6662 92.5602 46.1506L95.0787 45.8118C95.1554 46.0078 95.2769 46.1911 95.4431 46.3615C95.6092 46.532 95.8287 46.6683 96.1014 46.7706C96.3784 46.8771 96.7151 46.9304 97.1114 46.9304C97.7037 46.9304 98.1916 46.7855 98.5752 46.4957C98.9629 46.2102 99.1568 45.7308 99.1568 45.0575V43.2614H99.0418C98.9225 43.5341 98.7435 43.7919 98.5048 44.0348C98.2662 44.2777 97.9594 44.4759 97.5844 44.6293C97.2094 44.7827 96.7619 44.8594 96.2421 44.8594C95.5048 44.8594 94.8337 44.6889 94.2286 44.348C93.6277 44.0028 93.1483 43.4766 92.7904 42.7692C92.4367 42.0575 92.2598 41.1584 92.2598 40.0717C92.2598 38.9595 92.4409 38.0305 92.8031 37.2848C93.1654 36.5391 93.6469 35.9808 94.2477 35.6101C94.8529 35.2393 95.5155 35.054 96.2357 35.054C96.7854 35.054 97.2456 35.1477 97.6163 35.3352C97.9871 35.5185 98.2854 35.7486 98.5112 36.0256C98.7413 36.2983 98.9182 36.5668 99.0418 36.831H99.144V35.1818H101.848V45.0959C101.848 45.9311 101.643 46.63 101.234 47.1925C100.825 47.755 100.258 48.1768 99.534 48.4581C98.8138 48.7436 97.985 48.8864 97.0475 48.8864ZM97.105 42.8139C97.5439 42.8139 97.9146 42.7053 98.2172 42.4879C98.524 42.2663 98.7584 41.951 98.9203 41.5419C99.0865 41.1286 99.1696 40.6342 99.1696 40.0589C99.1696 39.4837 99.0887 38.9851 98.9267 38.5632C98.7648 38.1371 98.5304 37.8068 98.2236 37.5724C97.9168 37.3381 97.5439 37.2209 97.105 37.2209C96.6575 37.2209 96.2804 37.3423 95.9736 37.5852C95.6668 37.8239 95.4345 38.1562 95.2769 38.5824C95.1192 39.0085 95.0404 39.5007 95.0404 40.0589C95.0404 40.6257 95.1192 41.1158 95.2769 41.5291C95.4388 41.9382 95.671 42.2557 95.9736 42.4815C96.2804 42.7031 96.6575 42.8139 97.105 42.8139ZM106.315 45.1854C105.688 45.1854 105.13 45.0767 104.64 44.8594C104.15 44.6378 103.762 44.3118 103.476 43.8814C103.195 43.4467 103.055 42.9055 103.055 42.2578C103.055 41.7124 103.155 41.2543 103.355 40.8835C103.555 40.5128 103.828 40.2145 104.173 39.9886C104.518 39.7628 104.91 39.5923 105.349 39.4773C105.792 39.3622 106.257 39.2812 106.743 39.2344C107.314 39.1747 107.774 39.1193 108.123 39.0682C108.473 39.0128 108.726 38.9318 108.884 38.8253C109.042 38.7187 109.121 38.5611 109.121 38.3523V38.3139C109.121 37.9091 108.993 37.5959 108.737 37.3743C108.486 37.1527 108.128 37.0419 107.663 37.0419C107.173 37.0419 106.783 37.1506 106.493 37.3679C106.204 37.581 106.012 37.8494 105.918 38.1733L103.4 37.9688C103.528 37.3722 103.779 36.8565 104.154 36.4219C104.529 35.983 105.013 35.6463 105.605 35.4119C106.202 35.1733 106.892 35.054 107.676 35.054C108.221 35.054 108.743 35.1179 109.242 35.2457C109.745 35.3736 110.19 35.5717 110.578 35.8402C110.97 36.1087 111.279 36.4538 111.505 36.8757C111.731 37.2933 111.844 37.794 111.844 38.3778V45H109.261V43.6385H109.185C109.027 43.9453 108.816 44.2159 108.552 44.4503C108.288 44.6804 107.97 44.8615 107.599 44.9936C107.229 45.1214 106.8 45.1854 106.315 45.1854ZM107.094 43.3061C107.495 43.3061 107.849 43.2273 108.155 43.0696C108.462 42.9077 108.703 42.6903 108.878 42.4176C109.052 42.1449 109.14 41.8359 109.14 41.4908V40.4489C109.055 40.5043 108.937 40.5554 108.788 40.6023C108.643 40.6449 108.479 40.6854 108.296 40.7237C108.113 40.7578 107.93 40.7898 107.746 40.8196C107.563 40.8452 107.397 40.8686 107.248 40.8899C106.928 40.9368 106.649 41.0114 106.41 41.1136C106.172 41.2159 105.986 41.3544 105.854 41.5291C105.722 41.6996 105.656 41.9126 105.656 42.1683C105.656 42.5391 105.79 42.8224 106.059 43.0185C106.332 43.2102 106.677 43.3061 107.094 43.3061ZM113.456 45V35.1818H116.096V36.8949H116.198C116.377 36.2855 116.678 35.8253 117.1 35.5142C117.522 35.1989 118.007 35.0412 118.557 35.0412C118.693 35.0412 118.84 35.0497 118.998 35.0668C119.156 35.0838 119.294 35.1072 119.414 35.1371V37.5533C119.286 37.5149 119.109 37.4808 118.883 37.451C118.657 37.4212 118.451 37.4062 118.263 37.4062C117.862 37.4062 117.504 37.4936 117.189 37.6683C116.878 37.8388 116.631 38.0774 116.448 38.3842C116.269 38.6911 116.179 39.0447 116.179 39.4453V45H113.456Z" fill="#DAA520"/>
<path fill-rule="evenodd" clip-rule="evenodd" d="M29.2322 32.1105C29.0937 32.1739 28.9016 32.3392 28.8053 32.478L28.6301 32.7302V38.6056V44.4811L28.806 44.7345C29.2748 45.4098 30.3949 45.3575 30.8111 44.641C30.9022 44.4841 30.9202 43.4923 30.9202 38.6056C30.9202 32.2765 30.9402 32.5818 30.5012 32.2145C30.2393 31.9954 29.5989 31.9429 29.2322 32.1105ZM34.1992 32.1388C34.0601 32.2148 33.8769 32.3789 33.792 32.5036C33.6413 32.725 33.6377 32.8653 33.6377 38.6056C33.6377 44.346 33.6413 44.4863 33.792 44.7077C34.0791 45.1295 34.3359 45.2106 35.385 45.2109C36.505 45.2112 36.7636 45.1236 37.0334 44.6524L37.208 44.3473V38.6056V32.864L37.0334 32.5589C36.7636 32.0877 36.505 32.0001 35.385 32.0004C34.5912 32.0006 34.4145 32.0213 34.1992 32.1388ZM40.3829 32.158C39.8173 32.4964 39.8476 32.1307 39.8476 38.6056C39.8476 43.9945 39.8574 44.4289 39.9834 44.6535C40.4009 45.3979 41.6227 45.3979 42.0402 44.6535C42.1662 44.4289 42.176 43.9945 42.176 38.6056C42.176 33.2168 42.1662 32.7824 42.0402 32.5578C41.8454 32.2104 41.4575 32.0001 41.0118 32.0001C40.7614 32.0001 40.5637 32.0497 40.3829 32.158ZM45.4353 32.127C45.2674 32.2057 45.0988 32.3693 44.9902 32.5589L44.8156 32.864V38.6056V44.3473L44.9902 44.6524C45.26 45.1236 45.5186 45.2112 46.6386 45.2109C47.6877 45.2106 47.9445 45.1295 48.2316 44.7077C48.3823 44.4863 48.3859 44.346 48.3859 38.6056C48.3859 32.8653 48.3823 32.725 48.2316 32.5036C47.9445 32.0818 47.6877 32.0007 46.6386 32.0004C45.8861 32.0002 45.6536 32.0246 45.4353 32.127ZM51.6856 32.1295C51.5576 32.2004 51.3829 32.3287 51.2975 32.4147C51.1448 32.5684 51.1422 32.6694 51.1422 38.6073V44.6437L51.3363 44.8297C51.9044 45.3743 52.805 45.3287 53.2175 44.7345L53.3935 44.4811V38.6056V32.7302L53.2175 32.4768C52.9051 32.0268 52.1717 31.8606 51.6856 32.1295Z" fill="#DAA520"/>
</g>
<defs>
<filter id="filter0_d_213_120" x="0" y="0" width="187" height="77" filterUnits="userSpaceOnUse" color-interpolation-filters="sRGB">
<feFlood flood-opacity="0" result="BackgroundImageFix"/>
<feColorMatrix in="SourceAlpha" type="matrix" values="0 0 0 0 0 0 0 0 0 0 0 0 0 0 0 0 0 0 127 0" result="hardAlpha"/>
<feOffset/>
<feGaussianBlur stdDeviation="6"/>
<feComposite in2="hardAlpha" operator="out"/>
<feColorMatrix type="matrix" values="0 0 0 0 0 0 0 0 0 0 0 0 0 0 0 0 0 0 0.1 0"/>
<feBlend mode="normal" in2="BackgroundImageFix" result="effect1_dropShadow_213_120"/>
<feBlend mode="normal" in="SourceGraphic" in2="effect1_dropShadow_213_120" result="shape"/>
</filter>
<filter id="filter1_b_213_120" x="-8" y="-8" width="203" height="93" filterUnits="userSpaceOnUse" color-interpolation-filters="sRGB">
<feFlood flood-opacity="0" result="BackgroundImageFix"/>
<feGaussianBlur in="BackgroundImageFix" stdDeviation="10"/>
<feComposite in2="SourceAlpha" operator="in" result="effect1_backgroundBlur_213_120"/>
<feBlend mode="normal" in="SourceGraphic" in2="effect1_backgroundBlur_213_120" result="shape"/>
</filter>
<filter id="filter2_d_213_120" x="16.6301" y="19.9091" width="114.783" height="40.9772" filterUnits="userSpaceOnUse" color-interpolation-filters="sRGB">
<feFlood flood-opacity="0" result="BackgroundImageFix"/>
<feColorMatrix in="SourceAlpha" type="matrix" values="0 0 0 0 0 0 0 0 0 0 0 0 0 0 0 0 0 0 127 0" result="hardAlpha"/>
<feOffset/>
<feGaussianBlur stdDeviation="6"/>
<feComposite in2="hardAlpha" operator="out"/>
<feColorMatrix type="matrix" values="0 0 0 0 0 0 0 0 0 0 0 0 0 0 0 0 0 0 0.25 0"/>
<feBlend mode="normal" in2="BackgroundImageFix" result="effect1_dropShadow_213_120"/>
<feBlend mode="normal" in="SourceGraphic" in2="effect1_dropShadow_213_120" result="shape"/>
</filter>
</defs>
</svg>
