<svg width="187" height="77" viewBox="0 0 187 77" fill="none" xmlns="http://www.w3.org/2000/svg">
<g filter="url(#filter0_d_283_750)">
<g filter="url(#filter1_b_283_750)">
<path d="M12 22C12 16.4772 16.4772 12 22 12H165C170.523 12 175 16.4772 175 22V55C175 60.5229 170.523 65 165 65H22C16.4772 65 12 60.5228 12 55V22Z" fill="#1A1A1D"/>
<path d="M12.5 22C12.5 16.7533 16.7533 12.5 22 12.5H165C170.247 12.5 174.5 16.7533 174.5 22V55C174.5 60.2467 170.247 64.5 165 64.5H22C16.7533 64.5 12.5 60.2467 12.5 55V22Z" stroke="#DAA520"/>
</g>
</g>
<g filter="url(#filter2_d_283_750)">
<path d="M70.2283 34.1911V31.9091H80.9797V34.1911H76.9719V45H74.2361V34.1911H70.2283ZM81.1797 45V35.1818H83.8196V36.8949H83.9219C84.1008 36.2855 84.4013 35.8253 84.8231 35.5142C85.245 35.1989 85.7308 35.0412 86.2805 35.0412C86.4169 35.0412 86.5639 35.0497 86.7216 35.0668C86.8792 35.0838 87.0177 35.1072 87.1371 35.1371V37.5533C87.0092 37.5149 86.8324 37.4808 86.6065 37.451C86.3807 37.4212 86.174 37.4062 85.9865 37.4062C85.5859 37.4062 85.228 37.4936 84.9126 37.6683C84.6015 37.8388 84.3544 38.0774 84.1711 38.3842C83.9922 38.6911 83.9027 39.0447 83.9027 39.4453V45H81.1797ZM90.5634 45.1854C89.9369 45.1854 89.3787 45.0767 88.8886 44.8594C88.3986 44.6378 88.0108 44.3118 87.7253 43.8814C87.444 43.4467 87.3034 42.9055 87.3034 42.2578C87.3034 41.7124 87.4036 41.2543 87.6038 40.8835C87.8041 40.5128 88.0769 40.2145 88.422 39.9886C88.7672 39.7628 89.1592 39.5923 89.5982 39.4773C90.0413 39.3622 90.5058 39.2812 90.9916 39.2344C91.5627 39.1747 92.0229 39.1193 92.3723 39.0682C92.7217 39.0128 92.9753 38.9318 93.133 38.8253C93.2906 38.7187 93.3695 38.5611 93.3695 38.3523V38.3139C93.3695 37.9091 93.2416 37.5959 92.986 37.3743C92.7345 37.1527 92.3766 37.0419 91.9121 37.0419C91.422 37.0419 91.0321 37.1506 90.7423 37.3679C90.4526 37.581 90.2608 37.8494 90.1671 38.1733L87.6486 37.9688C87.7764 37.3722 88.0279 36.8565 88.4029 36.4219C88.7779 35.983 89.2615 35.6463 89.8538 35.4119C90.4504 35.1733 91.1408 35.054 91.9249 35.054C92.4703 35.054 92.9923 35.1179 93.4909 35.2457C93.9938 35.3736 94.4391 35.5717 94.8269 35.8402C95.2189 36.1087 95.5279 36.4538 95.7537 36.8757C95.9796 37.2933 96.0925 37.794 96.0925 38.3778V45H93.5101V43.6385H93.4334C93.2757 43.9453 93.0648 44.2159 92.8006 44.4503C92.5364 44.6804 92.2189 44.8615 91.8482 44.9936C91.4774 45.1214 91.0492 45.1854 90.5634 45.1854ZM91.3432 43.3061C91.7438 43.3061 92.0975 43.2273 92.4043 43.0696C92.7111 42.9077 92.9519 42.6903 93.1266 42.4176C93.3013 42.1449 93.3887 41.8359 93.3887 41.4908V40.4489C93.3034 40.5043 93.1862 40.5554 93.0371 40.6023C92.8922 40.6449 92.7281 40.6854 92.5449 40.7237C92.3617 40.7578 92.1784 40.7898 91.9952 40.8196C91.8119 40.8452 91.6458 40.8686 91.4966 40.8899C91.177 40.9368 90.8979 41.0114 90.6592 41.1136C90.4206 41.2159 90.2352 41.3544 90.1031 41.5291C89.971 41.6996 89.905 41.9126 89.905 42.1683C89.905 42.5391 90.0392 42.8224 90.3077 43.0185C90.5804 43.2102 90.9256 43.3061 91.3432 43.3061ZM100.428 39.3239V45H97.7051V35.1818H100.3V36.9141H100.415C100.633 36.343 100.997 35.8913 101.508 35.5589C102.02 35.2223 102.64 35.054 103.368 35.054C104.05 35.054 104.645 35.2031 105.152 35.5014C105.659 35.7997 106.053 36.2259 106.334 36.7798C106.616 37.3295 106.756 37.9858 106.756 38.7486V45H104.033V39.2344C104.037 38.6335 103.884 38.1648 103.573 37.8281C103.262 37.4872 102.834 37.3168 102.288 37.3168C101.922 37.3168 101.598 37.3956 101.317 37.5533C101.04 37.7109 100.822 37.9411 100.665 38.2436C100.511 38.5419 100.432 38.902 100.428 39.3239ZM116.571 37.9815L114.078 38.1349C114.036 37.9219 113.944 37.7301 113.804 37.5597C113.663 37.3849 113.478 37.2464 113.247 37.1442C113.022 37.0376 112.751 36.9844 112.436 36.9844C112.014 36.9844 111.658 37.0739 111.368 37.2528C111.078 37.4276 110.934 37.6619 110.934 37.956C110.934 38.1903 111.027 38.3885 111.215 38.5504C111.402 38.7124 111.724 38.8423 112.18 38.9403L113.957 39.2983C114.912 39.4943 115.623 39.8097 116.092 40.2443C116.561 40.679 116.795 41.25 116.795 41.9574C116.795 42.6009 116.605 43.1655 116.226 43.6513C115.851 44.1371 115.336 44.5163 114.679 44.7891C114.027 45.0575 113.275 45.1918 112.423 45.1918C111.123 45.1918 110.088 44.9212 109.316 44.38C108.549 43.8345 108.1 43.093 107.968 42.1555L110.646 42.0149C110.727 42.4112 110.923 42.7138 111.234 42.9226C111.545 43.1271 111.944 43.2294 112.429 43.2294C112.907 43.2294 113.29 43.1378 113.58 42.9545C113.874 42.767 114.023 42.5263 114.027 42.2322C114.023 41.9851 113.919 41.7827 113.714 41.625C113.51 41.4631 113.194 41.3395 112.768 41.2543L111.068 40.9155C110.109 40.7237 109.395 40.3913 108.926 39.9183C108.462 39.4453 108.23 38.8423 108.23 38.1094C108.23 37.4787 108.4 36.9354 108.741 36.4794C109.086 36.0234 109.57 35.6719 110.192 35.4247C110.819 35.1776 111.551 35.054 112.391 35.054C113.631 35.054 114.607 35.3161 115.319 35.8402C116.034 36.3643 116.452 37.0781 116.571 37.9815ZM123.29 35.1818V37.2273H117.23V35.1818H123.29ZM118.617 45V34.4723C118.617 33.7607 118.755 33.1705 119.032 32.7017C119.314 32.233 119.697 31.8814 120.183 31.647C120.669 31.4126 121.221 31.2955 121.839 31.2955C122.256 31.2955 122.638 31.3274 122.983 31.3913C123.332 31.4553 123.592 31.5128 123.763 31.5639L123.277 33.6094C123.17 33.5753 123.038 33.5433 122.88 33.5135C122.727 33.4837 122.569 33.4688 122.407 33.4688C122.007 33.4688 121.728 33.5625 121.57 33.75C121.412 33.9332 121.334 34.1911 121.334 34.5234V45H118.617ZM128.576 45.1918C127.566 45.1918 126.697 44.9872 125.968 44.5781C125.244 44.1648 124.685 43.581 124.293 42.8267C123.901 42.0682 123.705 41.1712 123.705 40.1357C123.705 39.1257 123.901 38.2393 124.293 37.4766C124.685 36.7138 125.237 36.1193 125.949 35.6932C126.665 35.267 127.504 35.054 128.467 35.054C129.115 35.054 129.718 35.1584 130.276 35.3672C130.839 35.5717 131.329 35.8807 131.746 36.294C132.168 36.7074 132.496 37.2273 132.731 37.8537C132.965 38.4759 133.082 39.2045 133.082 40.0398V40.7876H124.792V39.1001H130.519C130.519 38.7081 130.434 38.3608 130.263 38.0582C130.093 37.7557 129.857 37.5192 129.554 37.3487C129.256 37.174 128.908 37.0866 128.512 37.0866C128.099 37.0866 127.732 37.1825 127.413 37.3743C127.097 37.5618 126.85 37.8153 126.671 38.1349C126.492 38.4503 126.401 38.8018 126.396 39.1896V40.794C126.396 41.2798 126.486 41.6996 126.665 42.0533C126.848 42.407 127.106 42.6797 127.438 42.8714C127.771 43.0632 128.165 43.1591 128.621 43.1591C128.923 43.1591 129.2 43.1165 129.452 43.0312C129.703 42.946 129.918 42.8182 130.097 42.6477C130.276 42.4773 130.413 42.2685 130.506 42.0213L133.025 42.1875C132.897 42.7926 132.635 43.321 132.239 43.7727C131.847 44.2202 131.339 44.5696 130.717 44.821C130.099 45.0682 129.386 45.1918 128.576 45.1918ZM134.359 45V35.1818H136.999V36.8949H137.102C137.281 36.2855 137.581 35.8253 138.003 35.5142C138.425 35.1989 138.91 35.0412 139.46 35.0412C139.597 35.0412 139.744 35.0497 139.901 35.0668C140.059 35.0838 140.197 35.1072 140.317 35.1371V37.5533C140.189 37.5149 140.012 37.4808 139.786 37.451C139.56 37.4212 139.354 37.4062 139.166 37.4062C138.766 37.4062 138.408 37.4936 138.092 37.6683C137.781 37.8388 137.534 38.0774 137.351 38.3842C137.172 38.6911 137.082 39.0447 137.082 39.4453V45H134.359ZM141.225 45V35.1818H143.948V45H141.225ZM142.592 33.9162C142.188 33.9162 141.84 33.782 141.551 33.5135C141.265 33.2408 141.122 32.9148 141.122 32.5355C141.122 32.1605 141.265 31.8388 141.551 31.5703C141.84 31.2976 142.188 31.1612 142.592 31.1612C142.997 31.1612 143.342 31.2976 143.628 31.5703C143.918 31.8388 144.063 32.1605 144.063 32.5355C144.063 32.9148 143.918 33.2408 143.628 33.5135C143.342 33.782 142.997 33.9162 142.592 33.9162ZM145.629 45V35.1818H148.269V36.8949H148.371C148.55 36.2855 148.85 35.8253 149.272 35.5142C149.694 35.1989 150.18 35.0412 150.73 35.0412C150.866 35.0412 151.013 35.0497 151.171 35.0668C151.328 35.0838 151.467 35.1072 151.586 35.1371V37.5533C151.458 37.5149 151.282 37.4808 151.056 37.451C150.83 37.4212 150.623 37.4062 150.436 37.4062C150.035 37.4062 149.677 37.4936 149.362 37.6683C149.051 37.8388 148.804 38.0774 148.62 38.3842C148.441 38.6911 148.352 39.0447 148.352 39.4453V45H145.629Z" fill="#DAA520"/>
<path fill-rule="evenodd" clip-rule="evenodd" d="M45.7467 44H49.3289C50.9857 44 52.3289 42.6569 52.3289 41V35C52.3289 33.3431 50.9857 32 49.3289 32H31.0001C29.3432 32 28.0001 33.3431 28.0001 35V41C28.0001 42.6569 29.3432 44 31.0001 44H34.5823V42H31.0001C30.4478 42 30.0001 41.5523 30.0001 41V35C30.0001 34.4477 30.4478 34 31.0001 34H49.3289C49.8811 34 50.3289 34.4477 50.3289 35V41C50.3289 41.5523 49.8811 42 49.3289 42H45.7467V44Z" fill="#DAA520"/>
<path fill-rule="evenodd" clip-rule="evenodd" d="M39.8295 42.0888C39.7265 42.1397 38.7668 42.8723 37.6969 43.7168C36.2043 44.8949 35.7419 45.2885 35.71 45.4079C35.6245 45.7289 36.0344 46.0523 36.4496 45.9912C36.5999 45.9691 36.9726 45.7058 38.0496 44.8606C38.8219 44.2546 39.4751 43.7588 39.5011 43.7588C39.5272 43.7588 39.5485 45.0916 39.5485 46.7206V49.6823L39.7295 49.8411C39.8792 49.9726 39.9557 50 40.173 50C40.3903 50 40.4668 49.9726 40.6165 49.8411L40.7975 49.6823V46.7206C40.7975 45.0916 40.8184 43.7588 40.8438 43.7588C40.8693 43.7588 41.5238 44.2552 42.2981 44.8619C43.481 45.7888 43.7406 45.9692 43.9223 45.9906C44.3493 46.0408 44.6992 45.7312 44.6185 45.3747C44.5876 45.2387 40.7622 42.1852 40.4728 42.0656C40.2446 41.9714 40.0534 41.9783 39.8295 42.0888Z" fill="#DAA520"/>
</g>
<defs>
<filter id="filter0_d_283_750" x="0" y="0" width="187" height="77" filterUnits="userSpaceOnUse" color-interpolation-filters="sRGB">
<feFlood flood-opacity="0" result="BackgroundImageFix"/>
<feColorMatrix in="SourceAlpha" type="matrix" values="0 0 0 0 0 0 0 0 0 0 0 0 0 0 0 0 0 0 127 0" result="hardAlpha"/>
<feOffset/>
<feGaussianBlur stdDeviation="6"/>
<feComposite in2="hardAlpha" operator="out"/>
<feColorMatrix type="matrix" values="0 0 0 0 0 0 0 0 0 0 0 0 0 0 0 0 0 0 0.1 0"/>
<feBlend mode="normal" in2="BackgroundImageFix" result="effect1_dropShadow_283_750"/>
<feBlend mode="normal" in="SourceGraphic" in2="effect1_dropShadow_283_750" result="shape"/>
</filter>
<filter id="filter1_b_283_750" x="-8" y="-8" width="203" height="93" filterUnits="userSpaceOnUse" color-interpolation-filters="sRGB">
<feFlood flood-opacity="0" result="BackgroundImageFix"/>
<feGaussianBlur in="BackgroundImageFix" stdDeviation="10"/>
<feComposite in2="SourceAlpha" operator="in" result="effect1_backgroundBlur_283_750"/>
<feBlend mode="normal" in="SourceGraphic" in2="effect1_backgroundBlur_283_750" result="shape"/>
</filter>
<filter id="filter2_d_283_750" x="-1" y="0" width="187" height="77" filterUnits="userSpaceOnUse" color-interpolation-filters="sRGB">
<feFlood flood-opacity="0" result="BackgroundImageFix"/>
<feColorMatrix in="SourceAlpha" type="matrix" values="0 0 0 0 0 0 0 0 0 0 0 0 0 0 0 0 0 0 127 0" result="hardAlpha"/>
<feOffset/>
<feGaussianBlur stdDeviation="6"/>
<feComposite in2="hardAlpha" operator="out"/>
<feColorMatrix type="matrix" values="0 0 0 0 0 0 0 0 0 0 0 0 0 0 0 0 0 0 0.25 0"/>
<feBlend mode="normal" in2="BackgroundImageFix" result="effect1_dropShadow_283_750"/>
<feBlend mode="normal" in="SourceGraphic" in2="effect1_dropShadow_283_750" result="shape"/>
</filter>
</defs>
</svg>
