<svg width="263" height="53" viewBox="0 0 263 53" fill="none" xmlns="http://www.w3.org/2000/svg">
<rect x="21.5" y="0.5" width="221" height="52" stroke="#DAA520"/>
<path d="M0.5 10C0.5 4.75329 4.75329 0.5 10 0.5H253C258.247 0.5 262.5 4.7533 262.5 10V43C262.5 48.2467 258.247 52.5 253 52.5H10C4.75329 52.5 0.5 48.2467 0.5 43V10Z" fill="#1A1A1D" stroke="#DAA520"/>
<path d="M92.5028 19.3636L95.6669 29.3097H95.7884L98.9588 19.3636H102.027L97.5142 32.4546H93.9474L89.4283 19.3636H92.5028ZM106.919 32.6463C105.909 32.6463 105.039 32.4418 104.311 32.0327C103.586 31.6193 103.028 31.0355 102.636 30.2813C102.244 29.5227 102.048 28.6257 102.048 27.5902C102.048 26.5803 102.244 25.6939 102.636 24.9311C103.028 24.1683 103.58 23.5739 104.291 23.1477C105.007 22.7216 105.847 22.5085 106.81 22.5085C107.458 22.5085 108.061 22.6129 108.619 22.8217C109.181 23.0263 109.671 23.3352 110.089 23.7486C110.511 24.1619 110.839 24.6818 111.073 25.3083C111.308 25.9304 111.425 26.6591 111.425 27.4943V28.2422H103.134V26.5547H108.862C108.862 26.1627 108.776 25.8154 108.606 25.5128C108.436 25.2102 108.199 24.9737 107.896 24.8033C107.598 24.6286 107.251 24.5412 106.855 24.5412C106.441 24.5412 106.075 24.6371 105.755 24.8288C105.44 25.0163 105.193 25.2699 105.014 25.5895C104.835 25.9048 104.743 26.2564 104.739 26.6442V28.2486C104.739 28.7344 104.828 29.1541 105.007 29.5078C105.191 29.8615 105.448 30.1342 105.781 30.326C106.113 30.5178 106.507 30.6137 106.963 30.6137C107.266 30.6137 107.543 30.571 107.794 30.4858C108.046 30.4006 108.261 30.2727 108.44 30.1023C108.619 29.9318 108.755 29.723 108.849 29.4759L111.367 29.6421C111.24 30.2472 110.977 30.7756 110.581 31.2273C110.189 31.6747 109.682 32.0242 109.06 32.2756C108.442 32.5227 107.728 32.6463 106.919 32.6463ZM113.202 32.4546V22.6364H115.842V24.3494H115.944C116.123 23.7401 116.423 23.2798 116.845 22.9688C117.267 22.6534 117.753 22.4958 118.303 22.4958C118.439 22.4958 118.586 22.5043 118.744 22.5213C118.901 22.5384 119.04 22.5618 119.159 22.5916V25.0078C119.031 24.9695 118.855 24.9354 118.629 24.9056C118.403 24.8757 118.196 24.8608 118.009 24.8608C117.608 24.8608 117.25 24.9482 116.935 25.1229C116.624 25.2933 116.377 25.532 116.193 25.8388C116.014 26.1456 115.925 26.4993 115.925 26.8999V32.4546H113.202ZM129.955 22.6364V24.6818H124.043V22.6364H129.955ZM125.385 20.2841H128.108V29.4375C128.108 29.6889 128.146 29.885 128.223 30.0256C128.3 30.1619 128.406 30.2578 128.543 30.3132C128.683 30.3686 128.845 30.3963 129.029 30.3963C129.156 30.3963 129.284 30.3857 129.412 30.3644C129.54 30.3388 129.638 30.3196 129.706 30.3068L130.134 32.3331C129.998 32.3757 129.806 32.4247 129.559 32.4801C129.312 32.5398 129.012 32.576 128.658 32.5888C128.002 32.6144 127.426 32.527 126.932 32.3267C126.442 32.1264 126.061 31.8154 125.788 31.3935C125.515 30.9716 125.381 30.4389 125.385 29.7955V20.2841ZM136.06 32.6463C135.067 32.6463 134.208 32.4354 133.484 32.0135C132.764 31.5874 132.208 30.995 131.816 30.2365C131.423 29.4737 131.227 28.5895 131.227 27.5838C131.227 26.5696 131.423 25.6833 131.816 24.9247C132.208 24.1619 132.764 23.5696 133.484 23.1477C134.208 22.7216 135.067 22.5085 136.06 22.5085C137.053 22.5085 137.909 22.7216 138.629 23.1477C139.354 23.5696 139.912 24.1619 140.304 24.9247C140.696 25.6833 140.892 26.5696 140.892 27.5838C140.892 28.5895 140.696 29.4737 140.304 30.2365C139.912 30.995 139.354 31.5874 138.629 32.0135C137.909 32.4354 137.053 32.6463 136.06 32.6463ZM136.073 30.5369C136.524 30.5369 136.901 30.4091 137.204 30.1534C137.507 29.8935 137.735 29.5398 137.888 29.0923C138.046 28.6449 138.124 28.1357 138.124 27.5646C138.124 26.9936 138.046 26.4844 137.888 26.0369C137.735 25.5895 137.507 25.2358 137.204 24.9759C136.901 24.7159 136.524 24.586 136.073 24.586C135.617 24.586 135.233 24.7159 134.922 24.9759C134.615 25.2358 134.383 25.5895 134.225 26.0369C134.072 26.4844 133.995 26.9936 133.995 27.5646C133.995 28.1357 134.072 28.6449 134.225 29.0923C134.383 29.5398 134.615 29.8935 134.922 30.1534C135.233 30.4091 135.617 30.5369 136.073 30.5369ZM146.281 32.6144C145.535 32.6144 144.86 32.4226 144.254 32.0391C143.654 31.6513 143.176 31.0824 142.823 30.3324C142.473 29.5781 142.298 28.6534 142.298 27.5583C142.298 26.4333 142.48 25.4979 142.842 24.7521C143.204 24.0021 143.686 23.4418 144.286 23.071C144.892 22.696 145.554 22.5085 146.274 22.5085C146.824 22.5085 147.282 22.6023 147.649 22.7898C148.019 22.973 148.318 23.2031 148.544 23.4801C148.774 23.7529 148.948 24.0213 149.068 24.2855H149.151V19.3636H151.867V32.4546H149.183V30.8821H149.068C148.94 31.1548 148.759 31.4254 148.524 31.6939C148.294 31.9581 147.994 32.1776 147.623 32.3523C147.257 32.527 146.809 32.6144 146.281 32.6144ZM147.144 30.4475C147.583 30.4475 147.953 30.3281 148.256 30.0895C148.563 29.8466 148.797 29.5078 148.959 29.0732C149.125 28.6385 149.208 28.1293 149.208 27.5455C149.208 26.9617 149.127 26.4546 148.965 26.0242C148.803 25.5938 148.569 25.2614 148.262 25.027C147.955 24.7926 147.583 24.6754 147.144 24.6754C146.696 24.6754 146.319 24.7969 146.012 25.0398C145.705 25.2827 145.473 25.6193 145.316 26.0497C145.158 26.4801 145.079 26.9787 145.079 27.5455C145.079 28.1165 145.158 28.6215 145.316 29.0604C145.477 29.495 145.71 29.836 146.012 30.0831C146.319 30.326 146.696 30.4475 147.144 30.4475ZM156.906 32.6399C156.279 32.6399 155.721 32.5313 155.231 32.3139C154.741 32.0923 154.353 31.7663 154.068 31.336C153.787 30.9013 153.646 30.3601 153.646 29.7124C153.646 29.1669 153.746 28.7088 153.946 28.3381C154.147 27.9673 154.419 27.669 154.765 27.4432C155.11 27.2173 155.502 27.0469 155.941 26.9318C156.384 26.8168 156.848 26.7358 157.334 26.6889C157.905 26.6293 158.365 26.5739 158.715 26.5227C159.064 26.4673 159.318 26.3864 159.475 26.2798C159.633 26.1733 159.712 26.0156 159.712 25.8068V25.7685C159.712 25.3637 159.584 25.0504 159.328 24.8288C159.077 24.6073 158.719 24.4965 158.255 24.4965C157.765 24.4965 157.375 24.6051 157.085 24.8225C156.795 25.0355 156.603 25.304 156.51 25.6279L153.991 25.4233C154.119 24.8267 154.37 24.3111 154.745 23.8764C155.12 23.4375 155.604 23.1009 156.196 22.8665C156.793 22.6279 157.483 22.5085 158.267 22.5085C158.813 22.5085 159.335 22.5725 159.833 22.7003C160.336 22.8281 160.782 23.0263 161.169 23.2948C161.561 23.5632 161.87 23.9084 162.096 24.3303C162.322 24.7479 162.435 25.2486 162.435 25.8324V32.4546H159.853V31.0931H159.776C159.618 31.3999 159.407 31.6705 159.143 31.9048C158.879 32.135 158.561 32.3161 158.191 32.4482C157.82 32.576 157.392 32.6399 156.906 32.6399ZM157.686 30.7607C158.086 30.7607 158.44 30.6818 158.747 30.5242C159.054 30.3622 159.294 30.1449 159.469 29.8722C159.644 29.5994 159.731 29.2905 159.731 28.9453V27.9034C159.646 27.9588 159.529 28.01 159.38 28.0568C159.235 28.0994 159.071 28.1399 158.887 28.1783C158.704 28.2124 158.521 28.2443 158.338 28.2742C158.154 28.2997 157.988 28.3232 157.839 28.3445C157.52 28.3913 157.24 28.4659 157.002 28.5682C156.763 28.6705 156.578 28.809 156.446 28.9837C156.314 29.1541 156.248 29.3672 156.248 29.6229C156.248 29.9936 156.382 30.277 156.65 30.473C156.923 30.6648 157.268 30.7607 157.686 30.7607ZM172.717 25.4361L170.224 25.5895C170.181 25.3764 170.089 25.1847 169.949 25.0142C169.808 24.8395 169.623 24.701 169.393 24.5987C169.167 24.4922 168.896 24.4389 168.581 24.4389C168.159 24.4389 167.803 24.5284 167.513 24.7074C167.224 24.8821 167.079 25.1165 167.079 25.4105C167.079 25.6449 167.173 25.8431 167.36 26.005C167.548 26.1669 167.869 26.2969 168.325 26.3949L170.102 26.7529C171.057 26.9489 171.768 27.2642 172.237 27.6989C172.706 28.1335 172.94 28.7046 172.94 29.4119C172.94 30.0554 172.751 30.62 172.371 31.1058C171.996 31.5916 171.481 31.9709 170.825 32.2436C170.173 32.5121 169.42 32.6463 168.568 32.6463C167.268 32.6463 166.233 32.3757 165.462 31.8345C164.695 31.2891 164.245 30.5476 164.113 29.6101L166.791 29.4695C166.872 29.8658 167.068 30.1683 167.379 30.3771C167.69 30.5817 168.089 30.684 168.575 30.684C169.052 30.684 169.435 30.5923 169.725 30.4091C170.019 30.2216 170.168 29.9808 170.173 29.6868C170.168 29.4396 170.064 29.2372 169.859 29.0796C169.655 28.9176 169.339 28.794 168.913 28.7088L167.213 28.37C166.254 28.1783 165.54 27.8459 165.072 27.3729C164.607 26.8999 164.375 26.2969 164.375 25.5639C164.375 24.9333 164.545 24.3899 164.886 23.934C165.232 23.478 165.715 23.1264 166.337 22.8793C166.964 22.6321 167.697 22.5085 168.536 22.5085C169.776 22.5085 170.752 22.7706 171.464 23.2948C172.18 23.8189 172.597 24.5327 172.717 25.4361Z" fill="#DAA520"/>
</svg>
